<svg width="6" height="10" viewBox="0 0 6 10" fill="none" xmlns="http://www.w3.org/2000/svg">
<path d="M1.14087 1.5H1.64087H1.14087ZM1.58087 1V0.5V1ZM1.14087 5H1.64087H1.14087ZM1.14087 8.5H1.64087H1.14087ZM4.22087 1V0.5V1ZM0.640869 1.5C0.640869 1.74604 0.726305 1.99287 0.894386 2.18387L1.6451 1.52324C1.64712 1.52553 1.64589 1.52495 1.64413 1.52011C1.64238 1.5153 1.64087 1.50834 1.64087 1.5H0.640869ZM0.894386 2.18387C1.06428 2.37692 1.30944 2.5 1.58087 2.5V1.5C1.61891 1.5 1.64024 1.51772 1.6451 1.52324L0.894386 2.18387ZM1.58087 2.5C1.8523 2.5 2.09746 2.37692 2.26735 2.18387L1.51664 1.52324C1.5215 1.51772 1.54283 1.5 1.58087 1.5V2.5ZM2.26735 2.18387C2.43543 1.99287 2.52087 1.74604 2.52087 1.5H1.52087C1.52087 1.50834 1.51936 1.5153 1.51761 1.52011C1.51585 1.52495 1.51462 1.52553 1.51664 1.52324L2.26735 2.18387ZM2.52087 1.5C2.52087 1.25396 2.43543 1.00713 2.26735 0.816133L1.51664 1.47676C1.51462 1.47447 1.51585 1.47505 1.51761 1.47989C1.51936 1.4847 1.52087 1.49166 1.52087 1.5H2.52087ZM2.26735 0.816133C2.09746 0.623076 1.8523 0.5 1.58087 0.5V1.5C1.54283 1.5 1.5215 1.48228 1.51664 1.47676L2.26735 0.816133ZM1.58087 0.5C1.30944 0.5 1.06428 0.623076 0.894386 0.816133L1.6451 1.47676C1.64024 1.48228 1.61891 1.5 1.58087 1.5V0.5ZM0.894386 0.816133C0.726305 1.00713 0.640869 1.25396 0.640869 1.5H1.64087C1.64087 1.49166 1.64238 1.4847 1.64413 1.47989C1.64589 1.47505 1.64712 1.47447 1.6451 1.47676L0.894386 0.816133ZM0.640869 5C0.640869 5.24604 0.726305 5.49287 0.894386 5.68387L1.6451 5.02324C1.64712 5.02553 1.64589 5.02495 1.64413 5.02011C1.64238 5.0153 1.64087 5.00834 1.64087 5H0.640869ZM0.894386 5.68387C1.06428 5.87692 1.30944 6 1.58087 6V5C1.61891 5 1.64024 5.01772 1.6451 5.02324L0.894386 5.68387ZM1.58087 6C1.8523 6 2.09746 5.87692 2.26735 5.68387L1.51664 5.02324C1.5215 5.01772 1.54283 5 1.58087 5V6ZM2.26735 5.68387C2.43543 5.49287 2.52087 5.24604 2.52087 5H1.52087C1.52087 5.00834 1.51936 5.0153 1.51761 5.02011C1.51585 5.02495 1.51462 5.02553 1.51664 5.02324L2.26735 5.68387ZM2.52087 5C2.52087 4.75396 2.43543 4.50713 2.26735 4.31613L1.51664 4.97676C1.51462 4.97447 1.51585 4.97505 1.51761 4.97989C1.51936 4.9847 1.52087 4.99166 1.52087 5H2.52087ZM2.26735 4.31613C2.09746 4.12308 1.8523 4 1.58087 4V5C1.54283 5 1.5215 4.98228 1.51664 4.97676L2.26735 4.31613ZM1.58087 4C1.30944 4 1.06428 4.12308 0.894386 4.31613L1.6451 4.97676C1.64024 4.98228 1.61891 5 1.58087 5V4ZM0.894386 4.31613C0.726305 4.50713 0.640869 4.75396 0.640869 5H1.64087C1.64087 4.99166 1.64238 4.9847 1.64413 4.97989C1.64589 4.97505 1.64712 4.97447 1.6451 4.97676L0.894386 4.31613ZM0.640869 8.5C0.640869 8.74604 0.726305 8.99287 0.894386 9.18387L1.6451 8.52324C1.64712 8.52553 1.64589 8.52495 1.64413 8.52011C1.64238 8.5153 1.64087 8.50834 1.64087 8.5H0.640869ZM0.894386 9.18387C1.06428 9.37693 1.30944 9.5 1.58087 9.5V8.5C1.61891 8.5 1.64024 8.51772 1.6451 8.52324L0.894386 9.18387ZM1.58087 9.5C1.8523 9.5 2.09746 9.37693 2.26735 9.18387L1.51664 8.52324C1.5215 8.51772 1.54283 8.5 1.58087 8.5V9.5ZM2.26735 9.18387C2.43543 8.99287 2.52087 8.74604 2.52087 8.5H1.52087C1.52087 8.50834 1.51936 8.5153 1.51761 8.52011C1.51585 8.52495 1.51462 8.52553 1.51664 8.52324L2.26735 9.18387ZM2.52087 8.5C2.52087 8.25396 2.43543 8.00713 2.26735 7.81613L1.51664 8.47676C1.51462 8.47447 1.51585 8.47505 1.51761 8.47989C1.51936 8.4847 1.52087 8.49166 1.52087 8.5H2.52087ZM2.26735 7.81613C2.09746 7.62307 1.8523 7.5 1.58087 7.5V8.5C1.54283 8.5 1.5215 8.48228 1.51664 8.47676L2.26735 7.81613ZM1.58087 7.5C1.30944 7.5 1.06428 7.62307 0.894386 7.81613L1.6451 8.47676C1.64024 8.48228 1.61891 8.5 1.58087 8.5V7.5ZM0.894386 7.81613C0.726305 8.00713 0.640869 8.25396 0.640869 8.5H1.64087C1.64087 8.49166 1.64238 8.4847 1.64413 8.47989C1.64589 8.47505 1.64712 8.47447 1.6451 8.47676L0.894386 7.81613ZM3.28087 1.5C3.28087 1.74604 3.36631 1.99287 3.53439 2.18387L4.2851 1.52324C4.28712 1.52553 4.28589 1.52495 4.28413 1.52011C4.28237 1.5153 4.28087 1.50834 4.28087 1.5H3.28087ZM3.53439 2.18387C3.70428 2.37692 3.94944 2.5 4.22087 2.5V1.5C4.25891 1.5 4.28024 1.51772 4.2851 1.52324L3.53439 2.18387ZM4.22087 2.5C4.4923 2.5 4.73746 2.37692 4.90735 2.18387L4.15664 1.52324C4.1615 1.51772 4.18283 1.5 4.22087 1.5V2.5ZM4.90735 2.18387C5.07543 1.99287 5.16087 1.74604 5.16087 1.5H4.16087C4.16087 1.50834 4.15936 1.5153 4.15761 1.52011C4.15585 1.52495 4.15462 1.52553 4.15664 1.52324L4.90735 2.18387ZM5.16087 1.5C5.16087 1.25396 5.07543 1.00713 4.90735 0.816133L4.15664 1.47676C4.15462 1.47447 4.15585 1.47505 4.15761 1.47989C4.15936 1.4847 4.16087 1.49166 4.16087 1.5H5.16087ZM4.90735 0.816133C4.73746 0.623076 4.4923 0.5 4.22087 0.5V1.5C4.18283 1.5 4.1615 1.48228 4.15664 1.47676L4.90735 0.816133ZM4.22087 0.5C3.94944 0.5 3.70428 0.623076 3.53439 0.816133L4.2851 1.47676C4.28024 1.48228 4.25891 1.5 4.22087 1.5V0.5ZM3.53439 0.816133C3.36631 1.00713 3.28087 1.25396 3.28087 1.5H4.28087C4.28087 1.49166 4.28237 1.4847 4.28413 1.47989C4.28589 1.47505 4.28712 1.47447 4.2851 1.47676L3.53439 0.816133ZM3.28087 5C3.28087 5.24604 3.36631 5.49287 3.53439 5.68387L4.2851 5.02324C4.28712 5.02553 4.28589 5.02495 4.28413 5.02011C4.28237 5.0153 4.28087 5.00834 4.28087 5H3.28087ZM3.53439 5.68387C3.70428 5.87692 3.94944 6 4.22087 6V5C4.25891 5 4.28024 5.01772 4.2851 5.02324L3.53439 5.68387ZM4.22087 6C4.4923 6 4.73746 5.87692 4.90735 5.68387L4.15664 5.02324C4.1615 5.01772 4.18283 5 4.22087 5V6ZM4.90735 5.68387C5.07543 5.49287 5.16087 5.24604 5.16087 5H4.16087C4.16087 5.00834 4.15936 5.0153 4.15761 5.02011C4.15585 5.02495 4.15462 5.02553 4.15664 5.02324L4.90735 5.68387ZM5.16087 5C5.16087 4.75396 5.07543 4.50713 4.90735 4.31613L4.15664 4.97676C4.15462 4.97447 4.15585 4.97505 4.15761 4.97989C4.15936 4.9847 4.16087 4.99166 4.16087 5H5.16087ZM4.90735 4.31613C4.73746 4.12308 4.4923 4 4.22087 4V5C4.18283 5 4.1615 4.98228 4.15664 4.97676L4.90735 4.31613ZM4.22087 4C3.94944 4 3.70428 4.12308 3.53439 4.31613L4.2851 4.97676C4.28024 4.98228 4.25891 5 4.22087 5V4ZM3.53439 4.31613C3.36631 4.50713 3.28087 4.75396 3.28087 5H4.28087C4.28087 4.99166 4.28237 4.9847 4.28413 4.97989C4.28589 4.97505 4.28712 4.97447 4.2851 4.97676L3.53439 4.31613ZM3.28087 8.5C3.28087 8.74604 3.3663 8.99287 3.53439 9.18387L4.2851 8.52324C4.28712 8.52553 4.28589 8.52495 4.28413 8.52011C4.28237 8.5153 4.28087 8.50834 4.28087 8.5H3.28087ZM3.53439 9.18387C3.70428 9.37693 3.94944 9.5 4.22087 9.5V8.5C4.25891 8.5 4.28024 8.51772 4.2851 8.52324L3.53439 9.18387ZM4.22087 9.5C4.4923 9.5 4.73746 9.37693 4.90735 9.18387L4.15664 8.52324C4.1615 8.51772 4.18283 8.5 4.22087 8.5V9.5ZM4.90735 9.18387C5.07543 8.99287 5.16087 8.74604 5.16087 8.5H4.16087C4.16087 8.50834 4.15936 8.5153 4.15761 8.52011C4.15584 8.52495 4.15462 8.52553 4.15664 8.52324L4.90735 9.18387ZM5.16087 8.5C5.16087 8.25396 5.07543 8.00713 4.90735 7.81613L4.15664 8.47676C4.15462 8.47447 4.15584 8.47505 4.15761 8.47989C4.15936 8.4847 4.16087 8.49166 4.16087 8.5H5.16087ZM4.90735 7.81613C4.73746 7.62307 4.4923 7.5 4.22087 7.5V8.5C4.18283 8.5 4.1615 8.48228 4.15664 8.47676L4.90735 7.81613ZM4.22087 7.5C3.94944 7.5 3.70428 7.62307 3.53439 7.81613L4.2851 8.47676C4.28024 8.48228 4.25891 8.5 4.22087 8.5V7.5ZM3.53439 7.81613C3.3663 8.00713 3.28087 8.25396 3.28087 8.5H4.28087C4.28087 8.49166 4.28237 8.4847 4.28413 8.47989C4.28589 8.47505 4.28712 8.47447 4.2851 8.47676L3.53439 7.81613Z" fill="#616161"/>
</svg>
